# xmcd
#
# Track frame offsets: 
#        150
#        19850
#        33057
#        46375
#        67030
#        90170
#        98557
#        115560
#        134202
#        150152
#        165255
#        180880
#
# Disc length: 2636 seconds
#
# Revision: 5
# Processed by: cddbd v1.5.1PL0 Copyright (c) Steve Scherf et al.
# Submitted via: ExactAudioCopy v0.95a5
#
DISCID=7d0a4a0c
DTITLE=Mississippi John Hurt - Today!
DYEAR=1987
DGENRE=Blues
TTITLE0=Pay Day
TTITLE1=I'm Satisfied
TTITLE2=Candy Man
TTITLE3=Make Me A Pallet On Your Floor
TTITLE4=Talking Casey
TTITLE5=Corrinna, Corrinna
TTITLE6=Coffee Blues
TTITLE7=Louis Collins
TTITLE8=Hot Time In The Old Town Tonight
TTITLE9=If You Don't Want Me, Baby
TTITLE10=Spike Driver's Blues
TTITLE11=Beulah Land
EXTD=
EXTT0=
EXTT1=
EXTT2=
EXTT3=
EXTT4=
EXTT5=
EXTT6=
EXTT7=
EXTT8=
EXTT9=
EXTT10=
EXTT11=
PLAYORDER=
